<svg xmlns="http://www.w3.org/2000/svg" xmlns:xlink="http://www.w3.org/1999/xlink" fill="none" version="1.1" width="18" height="18" viewBox="0 0 18 18"><defs><clipPath id="master_svg0_4622_464961/4525_076860"><rect x="0" y="0" width="18" height="18" rx="0"/></clipPath></defs><g clip-path="url(#master_svg0_4622_464961/4525_076860)"><g><path d="M6.827378984375,1.4744476079940796L2.9447389843750003,1.4744476079940796Q2.321133984375,1.4744476079940796,1.880170984375,1.9154096079940797Q1.439208984375,2.3563726079940794,1.439208984375,2.97997760799408L1.439208984375,15.07274760799408Q1.439208984375,15.69634760799408,1.880170984375,16.13734760799408Q2.3211369843750003,16.57824760799408,2.9447389843750003,16.57824760799408L6.827378984375,16.57824760799408Q7.450978984375,16.57824760799408,7.891948984375,16.13734760799408Q8.332908984374999,15.69634760799408,8.332908984374999,15.07274760799408L8.332908984374999,2.97997760799408Q8.332908984374999,2.3563716079940797,7.891948984375,1.9154096079940797Q7.450978984375,1.4744476079940796,6.827378984375,1.4744476079940796ZM15.037508984375,1.4744476079940796L11.154868984375,1.4744476079940796Q10.531258984375,1.4744476079940796,10.090298984375,1.9154106079940796Q9.649338984375,2.35637560799408,9.649338984375,2.97997760799408L9.649338984375,6.90304760799408Q9.649338984375,7.52666760799408,10.090298984375,7.967627607994079Q10.531258984375,8.408597607994079,11.154868984375,8.408597607994079L15.037508984375,8.408597607994079Q15.661108984375,8.408597607994079,16.102108984375,7.96763760799408Q16.543008984375,7.52666760799408,16.543008984375,6.903067607994079L16.543008984375,2.97997760799408Q16.543008984375,2.35637560799408,16.102108984375,1.9154096079940797Q15.661108984375,1.4744476079940796,15.037508984375,1.4744476079940796ZM6.826048984375,2.70597760799408L6.836088984375,2.7061276079940795Q6.946498984375,2.7095276079940795,7.023758984375,2.7889176079940796Q7.101368984375,2.8686676079940794,7.101368984375,2.97997760799408L7.101378984375,15.07144760799408L7.101248984375,15.08084760799408Q7.098038984375,15.19164760799408,7.018438984375,15.26914760799408Q6.938688984375,15.346747607994079,6.827378984375,15.346747607994079L2.946058984375,15.346747607994079L2.936618984375,15.346647607994079Q2.8258289843749997,15.34344760799408,2.748358984375,15.26384760799408Q2.670748984375,15.18404760799408,2.670748984375,15.07274760799408L2.6707389843750002,2.9813076079940797L2.6708689843749998,2.9718576079940795Q2.674078984375,2.8610676079940793,2.753678984375,2.7835976079940794Q2.833428984375,2.7059876079940794,2.9447389843750003,2.7059876079940794L6.826048984375,2.70597760799408ZM15.045608984375,2.70611760799408L15.046908984375,2.7061376079940795Q15.156908984375,2.70977760799408,15.233908984375,2.7889176079940796Q15.311508984375,2.8686676079940794,15.311508984375,2.97997760799408L15.311508984375,6.90173760799408L15.311408984375,6.911177607994079Q15.308208984375,7.02197760799408,15.228608984375,7.09944760799408Q15.148808984375,7.1770576079940795,15.037508984375,7.1770576079940795L11.156188984375,7.177067607994079L11.146748984375,7.17693760799408Q11.035958984375,7.1737276079940795,10.958488984375,7.09411760799408Q10.880878984375,7.01436760799408,10.880878984375,6.903067607994079L10.880868984375,2.9812976079940796L10.880998984375,2.9718576079940795Q10.884208984375,2.8610676079940793,10.963808984375,2.7835976079940794Q11.043558984375,2.7059876079940794,11.154868984375,2.7059876079940794L15.036208984375,2.70597760799408L15.045608984375,2.70611760799408ZM15.037508984375,9.64412760799408L11.154868984375,9.64412760799408Q10.531268984375,9.64412760799408,10.090298984375,10.08508760799408Q9.649338984375,10.52605760799408,9.649338984375,11.14965760799408L9.649338984375,15.07274760799408Q9.649338984375,15.69634760799408,10.090298984375,16.13734760799408Q10.531268984375,16.57824760799408,11.154868984375,16.57824760799408L15.037508984375,16.57824760799408Q15.661108984375,16.57824760799408,16.102108984375,16.13734760799408Q16.543008984375,15.69634760799408,16.543008984375,15.07274760799408L16.543008984375,11.14967760799408Q16.543008984375,10.52605760799408,16.102108984375,10.08508760799408Q15.661108984375,9.64412760799408,15.037508984375,9.64412760799408ZM15.045608984375,10.87579760799408L15.046908984375,10.87581760799408Q15.156908984375,10.87945760799408,15.233908984375,10.958607607994079Q15.311508984375,11.03835760799408,15.311508984375,11.14965760799408L15.311508984375,15.07144760799408L15.311408984375,15.08084760799408Q15.308208984375,15.19164760799408,15.228608984375,15.26914760799408Q15.148808984375,15.346747607994079,15.037508984375,15.346747607994079L11.156198984375,15.346747607994079L11.146748984375,15.346647607994079Q11.035958984375,15.34344760799408,10.958488984375,15.26384760799408Q10.880878984375,15.18404760799408,10.880878984375,15.07274760799408L10.880868984375,11.15097760799408L10.880998984375,11.14153760799408Q10.884208984375,11.03074760799408,10.963808984375,10.95327760799408Q11.043558984375,10.87566760799408,11.154868984375,10.87566760799408L15.036208984375,10.87565760799408L15.045608984375,10.87579760799408Z" fill-rule="evenodd" fill="#757575" fill-opacity="1"/></g></g></svg>